<svg width="155" height="25" viewBox="0 0 155 25" fill="none" xmlns="http://www.w3.org/2000/svg">
<path d="M21.8518 20.4545V3H28.2439C29.4825 3 30.5081 3.20455 31.3206 3.61364C32.1331 4.01705 32.741 4.56534 33.1444 5.25852C33.5478 5.94602 33.7495 6.72159 33.7495 7.58523C33.7495 8.3125 33.616 8.92614 33.349 9.42614C33.0819 9.92045 32.724 10.3182 32.2751 10.6193C31.8319 10.9148 31.3433 11.1307 30.8092 11.267V11.4375C31.3887 11.4659 31.9541 11.6534 32.5052 12C33.062 12.3409 33.5223 12.8267 33.8859 13.4574C34.2495 14.0881 34.4314 14.8551 34.4314 15.7585C34.4314 16.6506 34.2211 17.4517 33.8007 18.1619C33.3859 18.8665 32.7439 19.4261 31.8745 19.8409C31.0052 20.25 29.8944 20.4545 28.5421 20.4545H21.8518ZM24.4853 18.196H28.2865C29.5478 18.196 30.4512 17.9517 30.9967 17.4631C31.5421 16.9744 31.8149 16.3636 31.8149 15.6307C31.8149 15.0795 31.6757 14.5739 31.3973 14.1136C31.1189 13.6534 30.7211 13.2869 30.2041 13.0142C29.6927 12.7415 29.0848 12.6051 28.3802 12.6051H24.4853V18.196ZM24.4853 10.5511H28.0137C28.6046 10.5511 29.1359 10.4375 29.6075 10.2102C30.0848 9.98295 30.4626 9.66477 30.741 9.25568C31.0251 8.84091 31.1671 8.35227 31.1671 7.78977C31.1671 7.06818 30.9143 6.46307 30.4086 5.97443C29.9029 5.4858 29.1274 5.24148 28.0819 5.24148H24.4853V10.5511Z" fill="#010919"/>
<path d="M42.4644 20.7188C41.1747 20.7188 40.0639 20.4432 39.132 19.892C38.2059 19.3352 37.49 18.554 36.9843 17.5483C36.4843 16.5369 36.2343 15.3523 36.2343 13.9943C36.2343 12.6534 36.4843 11.4716 36.9843 10.4489C37.49 9.42614 38.1945 8.62784 39.098 8.05398C40.007 7.48011 41.0695 7.19318 42.2855 7.19318C43.0241 7.19318 43.74 7.31534 44.4332 7.55966C45.1264 7.80398 45.7485 8.1875 46.2997 8.71023C46.8508 9.23295 47.2855 9.91193 47.6036 10.7472C47.9218 11.5767 48.0809 12.5852 48.0809 13.7727V14.6761H37.6747V12.767H45.5837C45.5837 12.0966 45.4474 11.5028 45.1747 10.9858C44.9019 10.4631 44.5184 10.0511 44.0241 9.75C43.5355 9.44886 42.9616 9.2983 42.3025 9.2983C41.5866 9.2983 40.9616 9.47443 40.4275 9.8267C39.8991 10.1733 39.49 10.6278 39.2002 11.1903C38.9161 11.7472 38.7741 12.3523 38.7741 13.0057V14.4972C38.7741 15.3722 38.9275 16.1165 39.2343 16.7301C39.5468 17.3438 39.9815 17.8125 40.5383 18.1364C41.0951 18.4545 41.7457 18.6136 42.49 18.6136C42.973 18.6136 43.4133 18.5455 43.811 18.4091C44.2087 18.267 44.5525 18.0568 44.8423 17.7784C45.132 17.5 45.3536 17.1563 45.507 16.7472L47.919 17.1818C47.7258 17.892 47.3792 18.5142 46.8792 19.0483C46.3849 19.5767 45.7627 19.9886 45.0127 20.2841C44.2684 20.5739 43.419 20.7188 42.4644 20.7188Z" fill="#010919"/>
<path d="M56.0224 20.7188C54.7326 20.7188 53.6218 20.4432 52.69 19.892C51.7638 19.3352 51.0479 18.554 50.5423 17.5483C50.0423 16.5369 49.7923 15.3523 49.7923 13.9943C49.7923 12.6534 50.0423 11.4716 50.5423 10.4489C51.0479 9.42614 51.7525 8.62784 52.6559 8.05398C53.565 7.48011 54.6275 7.19318 55.8434 7.19318C56.582 7.19318 57.2979 7.31534 57.9911 7.55966C58.6843 7.80398 59.3065 8.1875 59.8576 8.71023C60.4087 9.23295 60.8434 9.91193 61.1616 10.7472C61.4798 11.5767 61.6388 12.5852 61.6388 13.7727V14.6761H51.2326V12.767H59.1417C59.1417 12.0966 59.0053 11.5028 58.7326 10.9858C58.4599 10.4631 58.0763 10.0511 57.582 9.75C57.0934 9.44886 56.5195 9.2983 55.8604 9.2983C55.1445 9.2983 54.5195 9.47443 53.9854 9.8267C53.457 10.1733 53.0479 10.6278 52.7582 11.1903C52.4741 11.7472 52.332 12.3523 52.332 13.0057V14.4972C52.332 15.3722 52.4854 16.1165 52.7923 16.7301C53.1048 17.3438 53.5394 17.8125 54.0962 18.1364C54.6531 18.4545 55.3036 18.6136 56.0479 18.6136C56.5309 18.6136 56.9712 18.5455 57.369 18.4091C57.7667 18.267 58.1104 18.0568 58.4002 17.7784C58.69 17.5 58.9116 17.1563 59.065 16.7472L61.4769 17.1818C61.2837 17.892 60.9371 18.5142 60.4371 19.0483C59.9428 19.5767 59.3207 19.9886 58.5707 20.2841C57.8263 20.5739 56.9769 20.7188 56.0224 20.7188Z" fill="#010919"/>
<path d="M66.4866 12.6818V20.4545H63.9383V7.36364H66.3843V9.49432H66.5462C66.8474 8.80114 67.3189 8.24432 67.961 7.82386C68.6087 7.40341 69.4241 7.19318 70.407 7.19318C71.2991 7.19318 72.0803 7.38068 72.7508 7.75568C73.4212 8.125 73.9411 8.67614 74.3104 9.40909C74.6797 10.142 74.8644 11.0483 74.8644 12.1278V20.4545H72.3161V12.4347C72.3161 11.4858 72.0689 10.7443 71.5746 10.2102C71.0803 9.67045 70.4013 9.40057 69.5377 9.40057C68.9468 9.40057 68.4212 9.52841 67.961 9.78409C67.5064 10.0398 67.1456 10.4148 66.8786 10.9091C66.6172 11.3977 66.4866 11.9886 66.4866 12.6818Z" fill="#010919"/>
<path d="M81.5637 20.7443C80.7341 20.7443 79.9841 20.5909 79.3137 20.2841C78.6432 19.9716 78.112 19.5199 77.7199 18.929C77.3336 18.3381 77.1404 17.6136 77.1404 16.7557C77.1404 16.017 77.2824 15.4091 77.5665 14.9318C77.8506 14.4545 78.2341 14.0767 78.7171 13.7983C79.2 13.5199 79.7398 13.3097 80.3364 13.1676C80.933 13.0256 81.5409 12.9176 82.1603 12.8438C82.9444 12.7528 83.5807 12.679 84.0694 12.6222C84.558 12.5597 84.9131 12.4602 85.1347 12.3239C85.3563 12.1875 85.4671 11.9659 85.4671 11.6591V11.5994C85.4671 10.8551 85.2569 10.2784 84.8364 9.86932C84.4216 9.46023 83.8023 9.25568 82.9784 9.25568C82.1205 9.25568 81.4444 9.44602 80.95 9.8267C80.4614 10.2017 80.1233 10.6193 79.9358 11.0795L77.5409 10.5341C77.825 9.73864 78.2398 9.09659 78.7853 8.60795C79.3364 8.11364 79.9699 7.75568 80.6858 7.53409C81.4017 7.30682 82.1546 7.19318 82.9444 7.19318C83.4671 7.19318 84.0211 7.25568 84.6063 7.38068C85.1972 7.5 85.7483 7.72159 86.2597 8.04545C86.7767 8.36932 87.2 8.83239 87.5296 9.43466C87.8591 10.0313 88.0239 10.8068 88.0239 11.7614V20.4545H85.5353V18.6648H85.433C85.2682 18.9943 85.0211 19.3182 84.6915 19.6364C84.362 19.9545 83.9387 20.2188 83.4216 20.429C82.9046 20.6392 82.2853 20.7443 81.5637 20.7443ZM82.1176 18.6989C82.8222 18.6989 83.4245 18.5597 83.9245 18.2812C84.4301 18.0028 84.8137 17.6392 85.075 17.1903C85.3421 16.7358 85.4756 16.25 85.4756 15.733V14.0455C85.3847 14.1364 85.2086 14.2216 84.9472 14.3011C84.6915 14.375 84.3989 14.4403 84.0694 14.4972C83.7398 14.5483 83.4188 14.5966 83.1063 14.642C82.7938 14.6818 82.5324 14.7159 82.3222 14.7443C81.8279 14.8068 81.3762 14.9119 80.9671 15.0597C80.5637 15.2074 80.2398 15.4205 79.9955 15.6989C79.7569 15.9716 79.6375 16.3352 79.6375 16.7898C79.6375 17.4205 79.8705 17.8977 80.3364 18.2216C80.8023 18.5398 81.3961 18.6989 82.1176 18.6989Z" fill="#010919"/>
<path d="M99.1827 15.0256V7.36364H101.74V20.4545H99.2338V18.1875H99.0975C98.7963 18.8864 98.3134 19.4688 97.6486 19.9347C96.9895 20.3949 96.1685 20.625 95.1855 20.625C94.3446 20.625 93.6003 20.4403 92.9526 20.071C92.3105 19.696 91.8048 19.142 91.4355 18.4091C91.0719 17.6761 90.8901 16.7699 90.8901 15.6903V7.36364H93.4384V15.3835C93.4384 16.2756 93.6855 16.9858 94.1798 17.5142C94.6742 18.0426 95.3162 18.3068 96.106 18.3068C96.5833 18.3068 97.0577 18.1875 97.5293 17.9489C98.0066 17.7102 98.4014 17.3494 98.7139 16.8665C99.0321 16.3835 99.1884 15.7699 99.1827 15.0256Z" fill="#010919"/>
<path d="M114.445 10.5597L112.136 10.9688C112.039 10.6733 111.886 10.392 111.675 10.125C111.471 9.85795 111.192 9.6392 110.84 9.46875C110.488 9.2983 110.047 9.21307 109.519 9.21307C108.797 9.21307 108.195 9.375 107.712 9.69886C107.229 10.017 106.988 10.429 106.988 10.9347C106.988 11.3722 107.15 11.7244 107.474 11.9915C107.797 12.2585 108.32 12.4773 109.042 12.6477L111.121 13.125C112.326 13.4034 113.224 13.8324 113.814 14.4119C114.405 14.9915 114.701 15.7443 114.701 16.6705C114.701 17.4545 114.474 18.1534 114.019 18.767C113.57 19.375 112.942 19.8523 112.136 20.1989C111.334 20.5455 110.405 20.7188 109.349 20.7188C107.883 20.7188 106.687 20.4062 105.761 19.7812C104.834 19.1506 104.266 18.2557 104.056 17.0966L106.519 16.7216C106.672 17.3636 106.988 17.8494 107.465 18.179C107.942 18.5028 108.564 18.6648 109.332 18.6648C110.167 18.6648 110.834 18.4915 111.334 18.1449C111.834 17.7926 112.084 17.3636 112.084 16.858C112.084 16.4489 111.931 16.1051 111.624 15.8267C111.323 15.5483 110.86 15.3381 110.235 15.196L108.019 14.7102C106.797 14.4318 105.894 13.9886 105.309 13.3807C104.729 12.7727 104.439 12.0028 104.439 11.071C104.439 10.2983 104.655 9.62216 105.087 9.04261C105.519 8.46307 106.116 8.01136 106.877 7.6875C107.638 7.35795 108.511 7.19318 109.493 7.19318C110.908 7.19318 112.022 7.5 112.834 8.11364C113.647 8.72159 114.184 9.53693 114.445 10.5597Z" fill="#010919"/>
<path d="M120.784 20.7443C119.955 20.7443 119.205 20.5909 118.534 20.2841C117.864 19.9716 117.333 19.5199 116.941 18.929C116.554 18.3381 116.361 17.6136 116.361 16.7557C116.361 16.017 116.503 15.4091 116.787 14.9318C117.071 14.4545 117.455 14.0767 117.938 13.7983C118.421 13.5199 118.96 13.3097 119.557 13.1676C120.154 13.0256 120.762 12.9176 121.381 12.8438C122.165 12.7528 122.801 12.679 123.29 12.6222C123.779 12.5597 124.134 12.4602 124.355 12.3239C124.577 12.1875 124.688 11.9659 124.688 11.6591V11.5994C124.688 10.8551 124.478 10.2784 124.057 9.86932C123.642 9.46023 123.023 9.25568 122.199 9.25568C121.341 9.25568 120.665 9.44602 120.171 9.8267C119.682 10.2017 119.344 10.6193 119.157 11.0795L116.762 10.5341C117.046 9.73864 117.46 9.09659 118.006 8.60795C118.557 8.11364 119.191 7.75568 119.907 7.53409C120.622 7.30682 121.375 7.19318 122.165 7.19318C122.688 7.19318 123.242 7.25568 123.827 7.38068C124.418 7.5 124.969 7.72159 125.48 8.04545C125.997 8.36932 126.421 8.83239 126.75 9.43466C127.08 10.0313 127.245 10.8068 127.245 11.7614V20.4545H124.756V18.6648H124.654C124.489 18.9943 124.242 19.3182 123.912 19.6364C123.583 19.9545 123.159 20.2188 122.642 20.429C122.125 20.6392 121.506 20.7443 120.784 20.7443ZM121.338 18.6989C122.043 18.6989 122.645 18.5597 123.145 18.2812C123.651 18.0028 124.034 17.6392 124.296 17.1903C124.563 16.7358 124.696 16.25 124.696 15.733V14.0455C124.605 14.1364 124.429 14.2216 124.168 14.3011C123.912 14.375 123.62 14.4403 123.29 14.4972C122.961 14.5483 122.639 14.5966 122.327 14.642C122.014 14.6818 121.753 14.7159 121.543 14.7443C121.049 14.8068 120.597 14.9119 120.188 15.0597C119.784 15.2074 119.46 15.4205 119.216 15.6989C118.978 15.9716 118.858 16.3352 118.858 16.7898C118.858 17.4205 119.091 17.8977 119.557 18.2216C120.023 18.5398 120.617 18.6989 121.338 18.6989Z" fill="#010919"/>
<path d="M132.659 12.6818V20.4545H130.111V3H132.625V9.49432H132.787C133.094 8.78977 133.562 8.23011 134.193 7.81534C134.824 7.40057 135.648 7.19318 136.665 7.19318C137.562 7.19318 138.347 7.37784 139.017 7.74716C139.693 8.11648 140.216 8.66761 140.585 9.40057C140.96 10.1278 141.148 11.0369 141.148 12.1278V20.4545H138.599V12.4347C138.599 11.4744 138.352 10.7301 137.858 10.2017C137.364 9.66761 136.676 9.40057 135.795 9.40057C135.193 9.40057 134.653 9.52841 134.176 9.78409C133.705 10.0398 133.332 10.4148 133.06 10.9091C132.793 11.3977 132.659 11.9886 132.659 12.6818Z" fill="#010919"/>
<path d="M147.83 20.7443C147 20.7443 146.25 20.5909 145.58 20.2841C144.909 19.9716 144.378 19.5199 143.986 18.929C143.6 18.3381 143.407 17.6136 143.407 16.7557C143.407 16.017 143.549 15.4091 143.833 14.9318C144.117 14.4545 144.5 14.0767 144.983 13.7983C145.466 13.5199 146.006 13.3097 146.603 13.1676C147.199 13.0256 147.807 12.9176 148.427 12.8438C149.211 12.7528 149.847 12.679 150.336 12.6222C150.824 12.5597 151.179 12.4602 151.401 12.3239C151.623 12.1875 151.733 11.9659 151.733 11.6591V11.5994C151.733 10.8551 151.523 10.2784 151.103 9.86932C150.688 9.46023 150.069 9.25568 149.245 9.25568C148.387 9.25568 147.711 9.44602 147.216 9.8267C146.728 10.2017 146.39 10.6193 146.202 11.0795L143.807 10.5341C144.091 9.73864 144.506 9.09659 145.052 8.60795C145.603 8.11364 146.236 7.75568 146.952 7.53409C147.668 7.30682 148.421 7.19318 149.211 7.19318C149.733 7.19318 150.287 7.25568 150.873 7.38068C151.463 7.5 152.015 7.72159 152.526 8.04545C153.043 8.36932 153.466 8.83239 153.796 9.43466C154.125 10.0313 154.29 10.8068 154.29 11.7614V20.4545H151.802V18.6648H151.699C151.534 18.9943 151.287 19.3182 150.958 19.6364C150.628 19.9545 150.205 20.2188 149.688 20.429C149.171 20.6392 148.552 20.7443 147.83 20.7443ZM148.384 18.6989C149.088 18.6989 149.691 18.5597 150.191 18.2812C150.696 18.0028 151.08 17.6392 151.341 17.1903C151.608 16.7358 151.742 16.25 151.742 15.733V14.0455C151.651 14.1364 151.475 14.2216 151.213 14.3011C150.958 14.375 150.665 14.4403 150.336 14.4972C150.006 14.5483 149.685 14.5966 149.373 14.642C149.06 14.6818 148.799 14.7159 148.588 14.7443C148.094 14.8068 147.642 14.9119 147.233 15.0597C146.83 15.2074 146.506 15.4205 146.262 15.6989C146.023 15.9716 145.904 16.3352 145.904 16.7898C145.904 17.4205 146.137 17.8977 146.603 18.2216C147.069 18.5398 147.662 18.6989 148.384 18.6989Z" fill="#010919"/>
<path fill-rule="evenodd" clip-rule="evenodd" d="M6.13523 0.182693C5.28217 0.609222 4.9364 1.64653 5.36293 2.49959L9.29407 10.3619H1.72679C1.12828 10.3619 0.572447 10.6718 0.257792 11.1809C-0.0568628 11.69 -0.0854673 12.3257 0.182194 12.8611L5.36293 23.2225C5.78946 24.0756 6.82677 24.4214 7.67983 23.9948C8.53289 23.5683 8.87866 22.531 8.45213 21.6779L4.521 13.8157H12.0883C12.6868 13.8157 13.2426 13.5058 13.5573 12.9967C13.8719 12.4875 13.9005 11.8518 13.6329 11.3165L8.45213 0.954992C8.0256 0.101934 6.98829 -0.243836 6.13523 0.182693Z" fill="#CDDCF7"/>
<path fill-rule="evenodd" clip-rule="evenodd" d="M7.67995 0.182693C8.53301 0.609222 8.87878 1.64653 8.45225 2.49959L4.52112 10.3619H13.1597L13.633 11.2008C13.9476 11.71 13.9007 12.3257 13.633 12.8611L8.45225 23.2225C8.02572 24.0756 6.98841 24.4214 6.13535 23.9948C5.2823 23.5683 4.93653 22.531 5.36306 21.6779L9.29419 13.8157H0.662106L0.257915 12.9967C-0.0567401 12.4875 -0.0853447 11.8518 0.182317 11.3165L5.36306 0.954992C5.78959 0.101934 6.8269 -0.243836 7.67995 0.182693Z" fill="#0751D8"/>
</svg>
